Coordinates
version=1
nRows=14
nColumns=40
inDegrees=yes

Units are S.I. units (second, meters, Newtons, ...)
Angles are in degrees.

endheader
time	pelvis_tilt	pelvis_list	pelvis_rotation	pelvis_tx	pelvis_ty	pelvis_tz	hip_flexion_r	hip_adduction_r	hip_rotation_r	knee_angle_r	knee_angle_r_beta	ankle_angle_r	subtalar_angle_r	mtp_angle_r	hip_flexion_l	hip_adduction_l	hip_rotation_l	knee_angle_l	knee_angle_l_beta	ankle_angle_l	subtalar_angle_l	mtp_angle_l	lumbar_extension	lumbar_bending	lumbar_rotation	arm_flex_r	arm_add_r	arm_rot_r	elbow_flex_r	pro_sup_r	wrist_flex_r	wrist_dev_r	arm_flex_l	arm_add_l	arm_rot_l	elbow_flex_l	pro_sup_l	wrist_flex_l	wrist_dev_l
     31.28214286	     -3.86800674	     -2.56293762	     -2.53735886	      0.93593355	      0.92309720	      0.45177149	     26.85867543	     -1.28481203	    -13.55622172	     13.76296049	     13.76296049	      1.64165848	      3.41839266	      7.62285974	     -0.65683301	     -1.23166703	    -12.39987693	     12.37836986	     12.37836986	     18.72259226	     -1.66480164	     -4.70002950	     -8.46625882	      4.42941037	      1.98430472	    -14.65792018	    -11.46534895	     -6.86196267	     25.95904767	     46.43459815	      0.00000000	      0.00000000	     22.47186609	    -15.75362560	     -7.81018488	     80.39385003	     47.00694270	      0.00000000	      0.00000000
     31.29428571	     -3.98775218	     -2.49669214	     -2.51829582	      0.93706959	      0.92176081	      0.45357946	     26.66112538	     -1.10169261	    -13.73450925	     13.81477982	     13.81477982	      1.53628625	      3.38087856	      7.62906340	     -1.12309784	     -1.27983903	    -12.35466861	     12.39571154	     12.39571154	     19.04821740	     -1.64959365	     -4.80953218	     -8.09209811	      4.23326701	      2.03852121	    -14.43347634	    -11.44855232	     -6.86005580	     26.04775387	     46.43264242	      0.00000000	      0.00000000	     22.48457189	    -15.70675806	     -7.78156385	     80.41614482	     47.00615282	      0.00000000	      0.00000000
     31.30642857	     -3.67438678	     -2.58374072	     -2.46679335	      0.93873135	      0.92122642	      0.45553718	     25.86880670	     -0.85157591	    -14.24123598	     13.92836951	     13.92836951	      1.00458002	      3.73541619	      5.68259816	     -2.31748931	     -1.58676851	    -13.28586550	     12.07727978	     12.07727978	     19.81433383	      0.34806480	     -4.43262328	     -8.28643536	      4.20029064	      1.55133305	    -13.41803379	    -11.38313113	     -6.86194763	     26.39737322	     46.42688364	      0.00000000	      0.00000000	     22.07275641	    -15.98551718	     -7.52326153	     80.43656723	     47.01427753	      0.00000000	      0.00000000
     31.31857143	     -3.70513391	     -2.69157287	     -2.33249774	      0.94018064	      0.92000403	      0.45761970	     25.51630683	     -0.49708886	    -13.92475781	     14.15961819	     14.15961819	     -0.52415532	      2.36565850	      0.89178071	     -2.43424586	     -2.11598056	    -13.94834248	     13.16303891	     13.16303891	     21.39376731	      1.75930388	     -2.65810249	     -8.01599969	      4.22097531	      1.34588048	    -12.79214513	    -11.38736382	     -6.70356188	     26.42355276	     46.41848846	      0.00000000	      0.00000000	     21.70226879	    -15.92543501	     -7.40573900	     80.56443501	     47.08499610	      0.00000000	      0.00000000
     31.33071429	     -3.72386522	     -2.84686434	     -2.22670001	      0.94163291	      0.91929872	      0.45962083	     25.22151118	     -0.23317554	    -14.01287836	     14.75102680	     14.75102680	     -0.37933542	      2.13089827	      0.64555265	     -2.95494113	     -2.45019554	    -13.78331511	     13.30384863	     13.30384863	     21.63902069	      1.71287529	     -2.68691734	     -7.84399383	      4.32239764	      1.51808235	    -12.11882869	    -11.32964265	     -6.68680720	     26.68765862	     46.41180456	      0.00000000	      0.00000000	     21.29760413	    -15.65893181	     -7.25246777	     80.35135004	     47.07125315	      0.00000000	      0.00000000
     31.34285714	     -3.68206824	     -2.91912995	     -2.06418184	      0.94310456	      0.91856213	      0.46171462	     25.15963047	     -0.05869062	    -13.46529698	     15.86473162	     15.86473162	     -0.87910572	      0.49722305	     -2.24545942	     -3.14077544	     -2.88562328	    -14.00232624	     14.30673556	     14.30673556	     22.63259469	      2.28909635	     -1.36153823	     -7.67175564	      4.34673826	      1.27287521	    -11.46039699	    -11.43868977	     -6.54691152	     27.30154686	     46.37672020	      0.00000000	      0.00000000	     20.95985013	    -15.76437442	     -6.99138592	     79.38731260	     47.12268897	      0.00000000	      0.00000000
     31.35500000	     -3.61095091	     -3.07991110	     -1.91002146	      0.94475125	      0.91847593	      0.46378266	     24.73741026	      0.17368984	    -13.39597401	     16.49711669	     16.49711669	     -0.39627377	      0.20973997	     -2.53629315	     -3.59074055	     -3.28358963	    -13.80226083	     14.74575290	     14.74575290	     22.71265076	      2.12744020	     -1.41228155	     -7.59349468	      4.45074635	      1.43182608	    -10.66729122	    -11.40373926	     -6.53957038	     27.62484312	     46.36924833	      0.00000000	      0.00000000	     20.34412076	    -15.36908439	     -6.77022387	     79.05982114	     47.10055786	      0.00000000	      0.00000000
     31.36714286	     -3.47006086	     -3.26823200	     -1.66464862	      0.94608227	      0.91830836	      0.46578502	     24.71860709	      0.34601961	    -12.99968745	     17.97931480	     17.97931480	      0.19562428	     -0.98311507	     -3.01417627	     -3.53962599	     -3.86393131	    -13.45868418	     16.26509039	     16.26509039	     22.95213684	      1.59374579	     -1.63569712	     -7.61597890	      4.65869821	      1.02733780	     -9.67676867	    -11.58412394	     -6.60831800	     28.21134250	     46.35752379	      0.00000000	      0.00000000	     19.77084936	    -15.54628510	     -6.65031276	     78.04007663	     47.07987448	      0.00000000	      0.00000000
     31.37928571	     -3.52282523	     -3.44049895	     -1.42669865	      0.94737243	      0.91835651	      0.46794116	     24.62076467	      0.62015760	    -12.53923882	     18.86752269	     18.86752269	      0.76165107	     -2.21793403	     -3.24501625	     -3.12604294	     -4.48152243	    -13.12252107	     18.02059979	     18.02059979	     22.99717093	      1.01233275	     -1.90873395	     -7.38867202	      4.78675001	      0.77697346	     -8.67329211	    -11.61319776	     -6.65321005	     28.92049671	     46.33766945	      0.00000000	      0.00000000	     19.02736358	    -15.44012583	     -6.46232676	     76.80571386	     47.05228554	      0.00000000	      0.00000000
     31.39142857	     -3.53424278	     -3.62595773	     -1.16104181	      0.94864414	      0.91876628	      0.47007665	     24.35762377	      0.92959714	    -12.08221546	     19.50401662	     19.50401662	      1.35747188	     -3.32788910	     -3.30470715	     -2.55841678	     -5.15119826	    -12.66919527	     20.10798600	     20.10798600	     22.79780573	      0.27478748	     -2.38781700	     -7.22004793	      4.96267873	      0.61132626	     -7.69984104	    -11.65398754	     -6.70305518	     29.77023354	     46.31088703	      0.00000000	      0.00000000	     18.27545256	    -15.19084742	     -6.25092916	     75.29983271	     47.02102428	      0.00000000	      0.00000000
     31.40357143	     -3.37750872	     -3.81998241	     -0.89601762	      0.95000549	      0.91959710	      0.47223414	     23.81718410	      1.23986645	    -11.79804239	     19.98416306	     19.98416306	      2.07103066	     -4.09808326	     -3.34830853	     -1.99027506	     -5.84048369	    -12.09075150	     22.49598047	     22.49598047	     22.34292954	     -0.70865630	     -3.12101187	     -7.26238058	      5.14109142	      0.57566451	     -6.65373930	    -11.76901785	     -6.76452203	     30.68599134	     46.28267553	      0.00000000	      0.00000000	     17.53933179	    -14.90068385	     -6.03142636	     73.75839276	     46.98727036	      0.00000000	      0.00000000
     31.41571429	     -3.05469628	     -3.97668638	     -0.64389995	      0.95138186	      0.92086398	      0.47435932	     23.00665777	      1.50687020	    -11.66186700	     20.29480825	     20.29480825	      2.80292895	     -4.53438888	     -3.46913145	     -1.40151670	     -6.51299702	    -11.50281870	     25.22761362	     25.22761362	     21.57888376	     -1.83857665	     -3.81848179	     -7.53971711	      5.29053748	      0.59862453	     -5.46255849	    -11.89141049	     -6.82201721	     31.51661252	     46.26003094	      0.00000000	      0.00000000	     16.79283784	    -14.60510798	     -5.81032781	     72.46779029	     46.95220558	      0.00000000	      0.00000000
     31.42785714	     -3.08837382	     -4.11148173	     -0.29782115	      0.95242430	      0.92173538	      0.47634744	     22.50334063	      1.79718081	    -11.39357408	     20.39676752	     20.39676752	      3.54644205	     -5.33656649	     -2.90708100	     -0.16938606	     -7.07344208	    -10.32115160	     28.06039045	     28.06039045	     18.72721800	     -4.51065500	     -8.74905341	     -7.28827595	      5.49915229	      1.22819876	     -5.48440267	    -12.15846771	     -6.89988221	     34.46357969	     46.12417375	      0.00000000	      0.00000000	     17.13328826	    -13.64275286	     -5.25541344	     67.96853785	     46.89967983	      0.00000000	      0.00000000
     31.44000000	     -2.84129824	     -4.27292887	      0.02663452	      0.95356743	      0.92304786	      0.47842185	     21.56793630	      2.06208980	    -11.59160002	     20.28702154	     20.28702154	      4.13534803	     -5.35157700	     -3.09798793	      1.12998234	     -7.83368437	     -9.56046121	     31.76659507	     31.76659507	     17.33437783	     -5.89577833	     -9.44126802	     -7.49870182	      5.62743144	      1.07918554	     -4.11034847	    -12.28663732	     -7.00791037	     35.31943475	     46.10463530	      0.00000000	      0.00000000	     16.06936427	    -13.43865271	     -4.91514716	     66.85696578	     46.85617875	      0.00000000	      0.00000000
